<svg width="600" height="400" viewBox="0 0 600 400" fill="none" xmlns="http://www.w3.org/2000/svg">
  <!-- Background elements -->
  <defs>
    <linearGradient id="chartGradient" x1="0%" y1="0%" x2="0%" y2="100%">
      <stop offset="0%" style="stop-color:#4f46e5;stop-opacity:0.3" />
      <stop offset="100%" style="stop-color:#4f46e5;stop-opacity:0.05" />
    </linearGradient>
    <linearGradient id="cardGradient" x1="0%" y1="0%" x2="100%" y2="100%">
      <stop offset="0%" style="stop-color:#ffffff;stop-opacity:1" />
      <stop offset="100%" style="stop-color:#f9fafb;stop-opacity:1" />
    </linearGradient>
  </defs>
  
  <!-- Main chart card -->
  <rect x="50" y="50" width="500" height="300" rx="12" fill="url(#cardGradient)" stroke="#e5e7eb" stroke-width="2"/>
  
  <!-- Grid lines -->
  <line x1="80" y1="100" x2="520" y2="100" stroke="#e5e7eb" stroke-width="1" opacity="0.5"/>
  <line x1="80" y1="150" x2="520" y2="150" stroke="#e5e7eb" stroke-width="1" opacity="0.5"/>
  <line x1="80" y1="200" x2="520" y2="200" stroke="#e5e7eb" stroke-width="1" opacity="0.5"/>
  <line x1="80" y1="250" x2="520" y2="250" stroke="#e5e7eb" stroke-width="1" opacity="0.5"/>
  <line x1="80" y1="300" x2="520" y2="300" stroke="#e5e7eb" stroke-width="1" opacity="0.5"/>
  
  <!-- Price labels -->
  <text x="60" y="105" font-family="Arial" font-size="12" fill="#6b7280">€99</text>
  <text x="60" y="155" font-family="Arial" font-size="12" fill="#6b7280">€79</text>
  <text x="60" y="205" font-family="Arial" font-size="12" fill="#6b7280">€59</text>
  <text x="60" y="255" font-family="Arial" font-size="12" fill="#6b7280">€39</text>
  <text x="60" y="305" font-family="Arial" font-size="12" fill="#6b7280">€19</text>
  
  <!-- Filled area under chart -->
  <path d="M 80 180 Q 110 150, 140 160 Q 170 170, 200 140 Q 230 110, 260 180 Q 290 250, 320 220 Q 350 190, 380 160 Q 410 130, 440 200 Q 470 270, 500 240 L 500 300 L 80 300 Z" 
        fill="url(#chartGradient)"/>
  
  <!-- Price chart line with ups and downs -->
  <path d="M 80 180 Q 110 150, 140 160 Q 170 170, 200 140 Q 230 110, 260 180 Q 290 250, 320 220 Q 350 190, 380 160 Q 410 130, 440 200 Q 470 270, 500 240" 
        stroke="#4f46e5" 
        stroke-width="3" 
        fill="none" 
        stroke-linecap="round"/>
  
  <!-- Chart points -->
  <circle cx="80" cy="180" r="4" fill="#4f46e5"/>
  <circle cx="140" cy="160" r="4" fill="#4f46e5"/>
  <circle cx="200" cy="140" r="4" fill="#4f46e5"/>
  <circle cx="260" cy="180" r="4" fill="#4f46e5"/>
  <circle cx="320" cy="220" r="4" fill="#4f46e5"/>
  <circle cx="380" cy="160" r="4" fill="#4f46e5"/>
  <circle cx="440" cy="200" r="4" fill="#4f46e5"/>
  <circle cx="500" cy="240" r="4" fill="#10b981"/>
</svg>
